<svg width="34" height="45" viewBox="0 0 34 45" fill="none" xmlns="http://www.w3.org/2000/svg">
<path d="M17 0C16.296 0 15.72 0.579413 15.72 1.28341V40.912L2.15202 29.264C1.64002 28.816 0.808017 28.88 0.360017 29.392C-0.0879833 29.904 -0.0239829 30.736 0.488017 31.184L16.168 44.624C16.424 44.816 16.68 44.944 17 44.944C17.32 44.944 17.576 44.816 17.832 44.624L33.512 31.184C34.024 30.736 34.088 29.904 33.64 29.392C33.192 28.88 32.36 28.816 31.848 29.264L18.28 40.912V1.28341C18.28 0.579413 17.704 0 17 0Z" fill="#BB86FC"/>
</svg>
